<svg width="288" height="63" viewBox="0 0 288 63" fill="none" xmlns="http://www.w3.org/2000/svg">
<rect y="45" width="18" height="18" fill="#9999FF"/>
<rect x="19" y="45" width="18" height="18" fill="#9999FF"/>
<rect x="38" y="45" width="18" height="18" fill="#9999FF"/>
<rect x="38" y="26" width="18" height="18" fill="#CCCCFF"/>
<rect x="38" y="7" width="18" height="18" fill="#9999FF"/>
<rect y="26" width="18" height="18" fill="#9999FF"/>
<rect y="7" width="18" height="18" fill="#9999FF"/>
<rect x="19" y="7" width="18" height="18" fill="#9999FF"/>
<path d="M95.154 30.678C94.6727 33.4393 93.5453 35.5547 91.772 37.024C89.9987 38.4933 87.82 39.228 85.236 39.228C82.348 39.228 79.9287 38.278 77.978 36.378C76.7367 35.1367 75.964 33.7813 75.66 32.312C75.3813 30.8173 75.242 28.5373 75.242 25.472C75.242 22.4067 75.3813 20.1393 75.66 18.67C75.964 17.1753 76.7367 15.8073 77.978 14.566C79.9287 12.666 82.348 11.716 85.236 11.716C87.82 11.716 89.9987 12.4507 91.772 13.92C93.5453 15.3893 94.6727 17.5047 95.154 20.266H89.758C89.15 17.7073 87.6427 16.428 85.236 16.428C83.792 16.428 82.6647 16.8967 81.854 17.834C81.3473 18.4167 80.9927 19.2147 80.79 20.228C80.6127 21.216 80.524 22.964 80.524 25.472C80.524 27.98 80.6127 29.7407 80.79 30.754C80.9927 31.742 81.3473 32.5273 81.854 33.11C82.6647 34.0473 83.792 34.516 85.236 34.516C87.668 34.516 89.188 33.2367 89.796 30.678H95.154ZM115.45 39H110.472V26.916L103.518 39H98.5405V19.202H103.518V30.982L110.472 19.202H115.45V39ZM133.96 23.572H128.26V39H123.282V23.572H117.468V19.202H133.96V23.572ZM153.266 39H148.288V26.916L141.334 39H136.356V19.202H141.334V30.982L148.288 19.202H153.266V39ZM185.463 30.678C184.982 33.4393 183.855 35.5547 182.081 37.024C180.308 38.4933 178.129 39.228 175.545 39.228C172.657 39.228 170.238 38.278 168.287 36.378C167.046 35.1367 166.273 33.7813 165.969 32.312C165.691 30.8173 165.551 28.5373 165.551 25.472C165.551 22.4067 165.691 20.1393 165.969 18.67C166.273 17.1753 167.046 15.8073 168.287 14.566C170.238 12.666 172.657 11.716 175.545 11.716C178.129 11.716 180.308 12.4507 182.081 13.92C183.855 15.3893 184.982 17.5047 185.463 20.266H180.067C179.459 17.7073 177.952 16.428 175.545 16.428C174.101 16.428 172.974 16.8967 172.163 17.834C171.657 18.4167 171.302 19.2147 171.099 20.228C170.922 21.216 170.833 22.964 170.833 25.472C170.833 27.98 170.922 29.7407 171.099 30.754C171.302 31.742 171.657 32.5273 172.163 33.11C172.974 34.0473 174.101 34.516 175.545 34.516C177.977 34.516 179.497 33.2367 180.105 30.678H185.463ZM205.152 30.64H192.764C192.764 31.9573 193.144 33.0213 193.904 33.832C194.664 34.6427 195.728 35.048 197.096 35.048C198.109 35.048 198.932 34.9087 199.566 34.63C200.224 34.326 200.896 33.8447 201.58 33.186L204.582 36.112C203.518 37.2013 202.416 37.9993 201.276 38.506C200.161 38.9873 198.755 39.228 197.058 39.228C195.791 39.228 194.638 39.076 193.6 38.772C192.586 38.4427 191.636 37.9107 190.75 37.176C189.863 36.4413 189.166 35.39 188.66 34.022C188.153 32.654 187.9 31.0073 187.9 29.082C187.9 25.9153 188.685 23.4453 190.256 21.672C191.826 19.8733 193.916 18.974 196.526 18.974C199.236 18.974 201.352 19.8607 202.872 21.634C204.392 23.382 205.152 25.6873 205.152 28.55V30.64ZM200.288 27.258C200.262 26.3967 200.11 25.6873 199.832 25.13C199.224 23.762 198.122 23.078 196.526 23.078C194.93 23.078 193.828 23.762 193.22 25.13C192.941 25.6873 192.789 26.3967 192.764 27.258H200.288ZM225.514 29.082C225.514 31.134 225.388 32.8187 225.134 34.136C224.881 35.4533 224.324 36.5553 223.462 37.442C222.322 38.6327 220.726 39.228 218.674 39.228C216.622 39.228 215.026 38.5693 213.886 37.252V46.258H208.946V19.202H213.734V21.064C214.976 19.6707 216.622 18.974 218.674 18.974C220.726 18.974 222.322 19.5693 223.462 20.76C224.324 21.6467 224.881 22.7487 225.134 24.066C225.388 25.3833 225.514 27.0553 225.514 29.082ZM220.46 31.362C220.536 30.754 220.574 29.994 220.574 29.082C220.574 28.17 220.536 27.4227 220.46 26.84C220.384 26.232 220.232 25.6493 220.004 25.092C219.802 24.5347 219.46 24.1167 218.978 23.838C218.522 23.5593 217.94 23.42 217.23 23.42C216.521 23.42 215.926 23.5593 215.444 23.838C214.988 24.1167 214.646 24.5347 214.418 25.092C214.216 25.6493 214.076 26.232 214 26.84C213.924 27.4227 213.886 28.17 213.886 29.082C213.886 29.994 213.924 30.754 214 31.362C214.076 31.9447 214.216 32.5273 214.418 33.11C214.646 33.6673 214.988 34.0853 215.444 34.364C215.926 34.6427 216.521 34.782 217.23 34.782C217.94 34.782 218.522 34.6427 218.978 34.364C219.46 34.0853 219.802 33.6673 220.004 33.11C220.232 32.5273 220.384 31.9447 220.46 31.362ZM245.6 33.3C245.6 35.048 245.055 36.4413 243.966 37.48C242.877 38.4933 241.395 39 239.52 39H229.412V19.202H239.178C241.027 19.202 242.509 19.696 243.624 20.684C244.739 21.672 245.296 22.9893 245.296 24.636C245.296 26.46 244.46 27.8533 242.788 28.816C244.663 29.7787 245.6 31.2733 245.6 33.3ZM238 22.85H234.314V27.106H238C239.596 27.106 240.394 26.384 240.394 24.94C240.394 23.5467 239.596 22.85 238 22.85ZM240.698 33.034C240.698 32.2993 240.483 31.7293 240.052 31.324C239.621 30.9187 239.013 30.716 238.228 30.716H234.314V35.352H238.228C238.988 35.352 239.583 35.1493 240.014 34.744C240.47 34.3133 240.698 33.7433 240.698 33.034ZM266.454 39H261.476V26.916L254.522 39H249.544V19.202H254.522V30.982L261.476 19.202H266.454V39ZM285.601 36.53C283.879 38.3287 281.7 39.228 279.065 39.228C278.229 39.228 277.419 39.1393 276.633 38.962C275.848 38.7593 275.05 38.43 274.239 37.974C273.454 37.4927 272.77 36.8847 272.187 36.15C271.605 35.39 271.123 34.4147 270.743 33.224C270.389 32.008 270.211 30.6273 270.211 29.082C270.211 27.5367 270.389 26.1687 270.743 24.978C271.123 23.762 271.605 22.7867 272.187 22.052C272.77 21.3173 273.454 20.7093 274.239 20.228C275.05 19.7467 275.848 19.4173 276.633 19.24C277.419 19.0627 278.229 18.974 279.065 18.974C281.725 18.974 283.904 19.8607 285.601 21.634L282.257 24.978C281.295 23.9393 280.231 23.42 279.065 23.42C277.9 23.42 276.963 23.8507 276.253 24.712C275.519 25.624 275.151 27.0807 275.151 29.082C275.151 31.1087 275.519 32.578 276.253 33.49C276.963 34.3513 277.9 34.782 279.065 34.782C280.231 34.782 281.295 34.2627 282.257 33.224L285.601 36.53Z" fill="black"/>
<path d="M79.115 59H77.525V56.405C77.275 56.445 76.975 56.465 76.625 56.465C75.915 56.465 75.39 56.31 75.05 56C74.71 55.69 74.54 55.17 74.54 54.44V51.095H76.13V54.215C76.13 54.535 76.19 54.76 76.31 54.89C76.43 55.01 76.62 55.07 76.88 55.07C77.06 55.07 77.275 55.045 77.525 54.995V51.095H79.115V59ZM85.7687 59H84.1787V54.5L82.3787 59H80.9687V51.095H82.5587V55.595L84.3587 51.095H85.7687V59ZM92.1861 56.675C92.1361 57.505 91.9061 58.125 91.4961 58.535C91.1061 58.925 90.5461 59.12 89.8161 59.12C88.9661 59.12 88.3411 58.84 87.9411 58.28C87.5711 57.78 87.3861 56.7 87.3861 55.04C87.3861 53.4 87.5711 52.32 87.9411 51.8C88.3411 51.25 88.9661 50.975 89.8161 50.975C90.5161 50.975 91.0711 51.165 91.4811 51.545C91.9011 51.945 92.1361 52.565 92.1861 53.405H90.6111C90.5911 53.065 90.5211 52.82 90.4011 52.67C90.2711 52.48 90.0761 52.385 89.8161 52.385C89.5461 52.385 89.3411 52.495 89.2011 52.715C89.0511 52.975 88.9761 53.75 88.9761 55.04C88.9761 56.33 89.0511 57.11 89.2011 57.38C89.3311 57.59 89.5361 57.695 89.8161 57.695C90.0761 57.695 90.2711 57.605 90.4011 57.425C90.5211 57.255 90.5911 57.005 90.6111 56.675H92.1861ZM97.555 52.52H96.115V59H94.525V52.52H93.07V51.095H97.555V52.52ZM102.941 51.8C103.311 52.32 103.496 53.4 103.496 55.04C103.496 56.68 103.311 57.76 102.941 58.28C102.541 58.84 101.916 59.12 101.066 59.12C100.216 59.12 99.5905 58.84 99.1905 58.28C98.8205 57.76 98.6355 56.68 98.6355 55.04C98.6355 53.4 98.8205 52.32 99.1905 51.8C99.5905 51.25 100.216 50.975 101.066 50.975C101.916 50.975 102.541 51.25 102.941 51.8ZM101.906 55.04C101.906 53.75 101.831 52.975 101.681 52.715C101.541 52.495 101.336 52.385 101.066 52.385C100.796 52.385 100.591 52.495 100.451 52.715C100.301 52.975 100.226 53.75 100.226 55.04C100.226 56.34 100.301 57.12 100.451 57.38C100.581 57.59 100.786 57.695 101.066 57.695C101.346 57.695 101.551 57.59 101.681 57.38C101.831 57.12 101.906 56.34 101.906 55.04ZM109.713 55.505H106.443C106.443 56.505 106.523 57.13 106.683 57.38C106.823 57.59 107.028 57.695 107.298 57.695C107.558 57.695 107.758 57.595 107.898 57.395C108.028 57.235 108.093 56.995 108.093 56.675H109.683C109.653 57.445 109.428 58.05 109.008 58.49C108.618 58.91 108.048 59.12 107.298 59.12C106.578 59.12 106.008 58.905 105.588 58.475C105.288 58.165 105.088 57.73 104.988 57.17C104.898 56.61 104.853 55.9 104.853 55.04C104.853 54.18 104.898 53.47 104.988 52.91C105.088 52.35 105.288 51.915 105.588 51.605C105.998 51.185 106.563 50.975 107.283 50.975C107.993 50.975 108.558 51.185 108.978 51.605C109.268 51.895 109.463 52.35 109.563 52.97C109.663 53.59 109.713 54.435 109.713 55.505ZM108.123 54.335C108.123 53.465 108.048 52.92 107.898 52.7C107.748 52.49 107.543 52.385 107.283 52.385C107.023 52.385 106.818 52.49 106.668 52.7C106.518 52.92 106.443 53.465 106.443 54.335H108.123ZM118.972 52.805C119.042 53.315 119.077 54.06 119.077 55.04C119.077 56.02 119.042 56.77 118.972 57.29C118.902 57.8 118.752 58.205 118.522 58.505C118.192 58.915 117.727 59.12 117.127 59.12C116.827 59.12 116.562 59.05 116.332 58.91C116.162 58.8 116.007 58.66 115.867 58.49V61.775H114.277V51.095H115.807V51.68C115.887 51.52 116.062 51.355 116.332 51.185C116.562 51.045 116.827 50.975 117.127 50.975C117.727 50.975 118.192 51.18 118.522 51.59C118.762 51.89 118.912 52.295 118.972 52.805ZM117.487 55.04C117.487 53.7 117.402 52.92 117.232 52.7C117.082 52.49 116.887 52.385 116.647 52.385C116.427 52.385 116.247 52.46 116.107 52.61C115.947 52.79 115.867 53.035 115.867 53.345V56.75C115.867 57.08 115.947 57.325 116.107 57.485C116.247 57.625 116.427 57.695 116.647 57.695C116.897 57.695 117.092 57.595 117.232 57.395C117.402 57.175 117.487 56.39 117.487 55.04ZM125.306 55.505H122.036C122.036 56.505 122.116 57.13 122.276 57.38C122.416 57.59 122.621 57.695 122.891 57.695C123.151 57.695 123.351 57.595 123.491 57.395C123.621 57.235 123.686 56.995 123.686 56.675H125.276C125.246 57.445 125.021 58.05 124.601 58.49C124.211 58.91 123.641 59.12 122.891 59.12C122.171 59.12 121.601 58.905 121.181 58.475C120.881 58.165 120.681 57.73 120.581 57.17C120.491 56.61 120.446 55.9 120.446 55.04C120.446 54.18 120.491 53.47 120.581 52.91C120.681 52.35 120.881 51.915 121.181 51.605C121.591 51.185 122.156 50.975 122.876 50.975C123.586 50.975 124.151 51.185 124.571 51.605C124.861 51.895 125.056 52.35 125.156 52.97C125.256 53.59 125.306 54.435 125.306 55.505ZM123.716 54.335C123.716 53.465 123.641 52.92 123.491 52.7C123.341 52.49 123.136 52.385 122.876 52.385C122.616 52.385 122.411 52.49 122.261 52.7C122.111 52.92 122.036 53.465 122.036 54.335H123.716ZM134.239 59H126.889V51.095H128.479V57.59H129.769V51.095H131.359V57.59H132.649V51.095H134.239V59ZM140.715 55.505H137.445C137.445 56.505 137.525 57.13 137.685 57.38C137.825 57.59 138.03 57.695 138.3 57.695C138.56 57.695 138.76 57.595 138.9 57.395C139.03 57.235 139.095 56.995 139.095 56.675H140.685C140.655 57.445 140.43 58.05 140.01 58.49C139.62 58.91 139.05 59.12 138.3 59.12C137.58 59.12 137.01 58.905 136.59 58.475C136.29 58.165 136.09 57.73 135.99 57.17C135.9 56.61 135.855 55.9 135.855 55.04C135.855 54.18 135.9 53.47 135.99 52.91C136.09 52.35 136.29 51.915 136.59 51.605C137 51.185 137.565 50.975 138.285 50.975C138.995 50.975 139.56 51.185 139.98 51.605C140.27 51.895 140.465 52.35 140.565 52.97C140.665 53.59 140.715 54.435 140.715 55.505ZM139.125 54.335C139.125 53.465 139.05 52.92 138.9 52.7C138.75 52.49 138.545 52.385 138.285 52.385C138.025 52.385 137.82 52.49 137.67 52.7C137.52 52.92 137.445 53.465 137.445 54.335H139.125ZM146.964 59H145.374V55.67H143.889V59H142.299V51.095H143.889V54.26H145.374V51.095H146.964V59ZM153.624 59H152.034V54.5L150.234 59H148.824V51.095H150.414V55.595L152.214 51.095H153.624V59ZM160.102 55.505H156.832C156.832 56.505 156.912 57.13 157.072 57.38C157.212 57.59 157.417 57.695 157.687 57.695C157.947 57.695 158.147 57.595 158.287 57.395C158.417 57.235 158.482 56.995 158.482 56.675H160.072C160.042 57.445 159.817 58.05 159.397 58.49C159.007 58.91 158.437 59.12 157.687 59.12C156.967 59.12 156.397 58.905 155.977 58.475C155.677 58.165 155.477 57.73 155.377 57.17C155.287 56.61 155.242 55.9 155.242 55.04C155.242 54.18 155.287 53.47 155.377 52.91C155.477 52.35 155.677 51.915 155.977 51.605C156.387 51.185 156.952 50.975 157.672 50.975C158.382 50.975 158.947 51.185 159.367 51.605C159.657 51.895 159.852 52.35 159.952 52.97C160.052 53.59 160.102 54.435 160.102 55.505ZM158.512 54.335C158.512 53.465 158.437 52.92 158.287 52.7C158.137 52.49 157.932 52.385 157.672 52.385C157.412 52.385 157.207 52.49 157.057 52.7C156.907 52.92 156.832 53.465 156.832 54.335H158.512ZM170.636 61.01H169.121V59H165.596V61.01H164.081V57.59H164.741C165.201 56.45 165.431 55.11 165.431 53.57V51.095H169.901V57.59H170.636V61.01ZM168.311 57.59V52.505H166.961V53.855C166.961 55.295 166.766 56.54 166.376 57.59H168.311ZM177.096 59H175.506V52.52H174.246V55.745C174.246 56.985 174.066 57.84 173.706 58.31C173.346 58.77 172.766 59 171.966 59H171.456V57.59H171.696C171.846 57.59 171.971 57.57 172.071 57.53C172.171 57.49 172.276 57.41 172.386 57.29C172.496 57.16 172.576 56.95 172.626 56.66C172.686 56.36 172.716 55.975 172.716 55.505V51.095H177.096V59ZM183.417 59H181.827V55.985H181.212L180.162 59H178.512L179.757 55.655C179.097 55.295 178.767 54.585 178.767 53.525C178.767 52.715 178.942 52.11 179.292 51.71C179.642 51.3 180.242 51.095 181.092 51.095H183.417V59ZM181.827 54.575V52.505H181.107C180.817 52.505 180.617 52.595 180.507 52.775C180.407 52.945 180.357 53.195 180.357 53.525C180.357 54.225 180.607 54.575 181.107 54.575H181.827ZM193.048 56.705C193.048 57.145 193.003 57.495 192.913 57.755C192.823 58.015 192.673 58.25 192.463 58.46C192.083 58.82 191.483 59 190.663 59H188.263V51.095H190.663C191.513 51.095 192.108 51.26 192.448 51.59C192.828 51.94 193.018 52.485 193.018 53.225C193.018 53.825 192.853 54.275 192.523 54.575C192.393 54.705 192.228 54.81 192.028 54.89C192.248 54.97 192.418 55.07 192.538 55.19C192.878 55.48 193.048 55.985 193.048 56.705ZM191.458 56.6C191.458 56.22 191.383 55.95 191.233 55.79C191.083 55.63 190.838 55.55 190.498 55.55H189.808V57.635H190.498C190.838 57.635 191.083 57.56 191.233 57.41C191.383 57.26 191.458 56.99 191.458 56.6ZM191.203 54.11C191.353 53.96 191.428 53.715 191.428 53.375C191.428 53.035 191.353 52.795 191.203 52.655C191.063 52.515 190.843 52.445 190.543 52.445H189.808V54.32H190.543C190.843 54.32 191.063 54.25 191.203 54.11ZM199.156 59H197.656V58.325C197.476 58.575 197.316 58.75 197.176 58.85C196.916 59.03 196.616 59.12 196.276 59.12C195.666 59.12 195.171 58.9 194.791 58.46C194.471 58.08 194.311 57.49 194.311 56.69C194.311 55.94 194.556 55.35 195.046 54.92C195.456 54.56 196.061 54.38 196.861 54.38H197.566V53.285C197.566 52.675 197.311 52.37 196.801 52.37C196.581 52.37 196.406 52.445 196.276 52.595C196.116 52.765 196.036 53.01 196.036 53.33H194.446C194.446 52.64 194.671 52.07 195.121 51.62C195.551 51.19 196.106 50.975 196.786 50.975C197.526 50.975 198.086 51.17 198.466 51.56C198.926 52.02 199.156 52.64 199.156 53.42V59ZM197.566 56.675V55.505H197.041C196.661 55.505 196.386 55.585 196.216 55.745C196.006 55.935 195.901 56.23 195.901 56.63C195.901 57.36 196.176 57.725 196.726 57.725C196.966 57.725 197.166 57.63 197.326 57.44C197.486 57.25 197.566 56.995 197.566 56.675ZM208.327 59H200.977V51.095H202.567V57.59H203.857V51.095H205.447V57.59H206.737V51.095H208.327V59ZM214.984 59H213.394V54.5L211.594 59H210.184V51.095H211.774V55.595L213.574 51.095H214.984V59ZM221.791 59H220.021L218.986 56.54L217.951 59H216.196L218.056 54.98L216.286 51.095H218.041L218.986 53.495L219.931 51.095H221.701L219.901 54.98L221.791 59ZM230.632 59H229.042V52.52H227.557V59H225.967V51.095H230.632V59ZM236.557 51.8C236.927 52.32 237.112 53.4 237.112 55.04C237.112 56.68 236.927 57.76 236.557 58.28C236.157 58.84 235.532 59.12 234.682 59.12C233.832 59.12 233.207 58.84 232.807 58.28C232.437 57.76 232.252 56.68 232.252 55.04C232.252 53.4 232.437 52.32 232.807 51.8C233.207 51.25 233.832 50.975 234.682 50.975C235.532 50.975 236.157 51.25 236.557 51.8ZM235.522 55.04C235.522 53.75 235.447 52.975 235.297 52.715C235.157 52.495 234.952 52.385 234.682 52.385C234.412 52.385 234.207 52.495 234.067 52.715C233.917 52.975 233.842 53.75 233.842 55.04C233.842 56.34 233.917 57.12 234.067 57.38C234.197 57.59 234.402 57.695 234.682 57.695C234.962 57.695 235.167 57.59 235.297 57.38C235.447 57.12 235.522 56.34 235.522 55.04ZM244.905 59H243.315V54.455L242.235 57.035H241.38L240.3 54.455V59H238.71V51.095H240.165L241.815 55.01L243.465 51.095H244.905V59ZM251.379 55.505H248.109C248.109 56.505 248.189 57.13 248.349 57.38C248.489 57.59 248.694 57.695 248.964 57.695C249.224 57.695 249.424 57.595 249.564 57.395C249.694 57.235 249.759 56.995 249.759 56.675H251.349C251.319 57.445 251.094 58.05 250.674 58.49C250.284 58.91 249.714 59.12 248.964 59.12C248.244 59.12 247.674 58.905 247.254 58.475C246.954 58.165 246.754 57.73 246.654 57.17C246.564 56.61 246.519 55.9 246.519 55.04C246.519 54.18 246.564 53.47 246.654 52.91C246.754 52.35 246.954 51.915 247.254 51.605C247.664 51.185 248.229 50.975 248.949 50.975C249.659 50.975 250.224 51.185 250.644 51.605C250.934 51.895 251.129 52.35 251.229 52.97C251.329 53.59 251.379 54.435 251.379 55.505ZM249.789 54.335C249.789 53.465 249.714 52.92 249.564 52.7C249.414 52.49 249.209 52.385 248.949 52.385C248.689 52.385 248.484 52.49 248.334 52.7C248.184 52.92 248.109 53.465 248.109 54.335H249.789ZM260.312 51.095V57.575H260.957V61.01H259.517V59H252.962V51.095H254.552V57.59H255.842V51.095H257.432V57.59H258.722V51.095H260.312ZM266.715 55.505H263.445C263.445 56.505 263.525 57.13 263.685 57.38C263.825 57.59 264.03 57.695 264.3 57.695C264.56 57.695 264.76 57.595 264.9 57.395C265.03 57.235 265.095 56.995 265.095 56.675H266.685C266.655 57.445 266.43 58.05 266.01 58.49C265.62 58.91 265.05 59.12 264.3 59.12C263.58 59.12 263.01 58.905 262.59 58.475C262.29 58.165 262.09 57.73 261.99 57.17C261.9 56.61 261.855 55.9 261.855 55.04C261.855 54.18 261.9 53.47 261.99 52.91C262.09 52.35 262.29 51.915 262.59 51.605C263 51.185 263.565 50.975 264.285 50.975C264.995 50.975 265.56 51.185 265.98 51.605C266.27 51.895 266.465 52.35 266.565 52.97C266.665 53.59 266.715 54.435 266.715 55.505ZM265.125 54.335C265.125 53.465 265.05 52.92 264.9 52.7C264.75 52.49 264.545 52.385 264.285 52.385C264.025 52.385 263.82 52.49 263.67 52.7C263.52 52.92 263.445 53.465 263.445 54.335H265.125ZM272.964 59H271.374V55.67H269.889V59H268.299V51.095H269.889V54.26H271.374V51.095H272.964V59ZM279.624 59H278.034V54.5L276.234 59H274.824V51.095H276.414V55.595L278.214 51.095H279.624V59ZM286.282 59H284.692V54.5L282.892 59H281.482V51.095H283.072V55.595L284.872 51.095H286.282V59ZM285.757 48.455C285.737 49.065 285.552 49.515 285.202 49.805C284.852 50.095 284.412 50.24 283.882 50.24C283.352 50.24 282.912 50.095 282.562 49.805C282.222 49.515 282.037 49.065 282.007 48.455H283.087C283.127 48.915 283.392 49.145 283.882 49.145C284.372 49.145 284.637 48.915 284.677 48.455H285.757Z" fill="black"/>
</svg>
